<svg id="Group_4329" data-name="Group 4329" xmlns="http://www.w3.org/2000/svg" width="32.771" height="35.75" viewBox="0 0 32.771 35.75">
  <path id="Path_3450" data-name="Path 3450" d="M28.2,14.272a3,3,0,0,1-1.534,2.607l-7.746,4.3L12.37,14.272,18.924,7.36l7.746,4.3A3,3,0,0,1,28.2,14.272Z" transform="translate(4.567 3.603)" fill="#ffc107"/>
  <path id="Path_3451" data-name="Path 3451" d="M17.937,17.576,1.849,34.543A2.9,2.9,0,0,1,1,32.472V2.681A2.9,2.9,0,0,1,1.849.61Z" transform="translate(-1 0.299)" fill="#03a9f4"/>
  <path id="Path_3452" data-name="Path 3452" d="M17.657,12l6.554,6.912L5.145,29.5a2.979,2.979,0,0,1-1.445.372,2.923,2.923,0,0,1-2.13-.909Z" transform="translate(-0.721 5.875)" fill="#f44336"/>
  <path id="Path_3453" data-name="Path 3453" d="M24.212,10.963l-6.554,6.912L1.57.909A2.923,2.923,0,0,1,3.7,0,2.979,2.979,0,0,1,5.145.372Z" transform="translate(-0.721 0)" fill="#4caf50"/>
</svg>
