<svg xmlns="http://www.w3.org/2000/svg" width="29.104" height="35.75" viewBox="0 0 29.104 35.75">
  <path id="Path_3454" data-name="Path 3454" d="M23.667,7.7A7.829,7.829,0,0,0,25.562,2,7.936,7.936,0,0,0,20.2,4.717a7.453,7.453,0,0,0-1.787,5.523A6.6,6.6,0,0,0,23.667,7.7Zm4.5,13.3a8.061,8.061,0,0,1,3.861-6.81,8.329,8.329,0,0,0-6.542-3.575c-2.788-.286-5.362,1.627-6.846,1.627s-3.575-1.591-5.9-1.555a8.794,8.794,0,0,0-7.4,4.522c-3.146,5.469-.8,13.6,2.341,18.017,1.43,2.163,3.217,4.611,5.577,4.522s3.128-1.466,5.863-1.466,3.575,1.466,5.9,1.412,3.968-2.216,5.469-4.379a19.661,19.661,0,0,0,2.467-5.094A7.882,7.882,0,0,1,28.171,21Z" transform="translate(-3.856 -2)" fill="#fff"/>
</svg>
